Coordinates
version=1
nRows=65
nColumns=12
inDegrees=yes

Units are S.I. units (second, meters, Newtons, ...)
Angles are in degrees

endheader
time	SC_y	SC_z	SC_x	AC_y	AC_z	AC_x	GH_y	GH_z	GH_yy	EL_x	PS_y
       0.0              -47.53          31.11          71.15          52.06         -18.15          11.88         -162.4          -2.59           4.49          43.76           39.9
   0.04764              -47.53          31.11          71.14          52.06         -18.15          11.88         -162.4         -2.586          4.476          43.75          39.91
   0.09528              -47.53          31.11          71.14          52.06         -18.14          11.88         -162.4         -2.582          4.462          43.75          39.91
    0.1429              -47.53          31.11          71.13          52.06         -18.14          11.87         -162.3         -2.578          4.446          43.75          39.92
    0.1906              -47.53          31.11          71.13          52.06         -18.14          11.87         -162.3         -2.573           4.43          43.74          39.93
    0.2382              -47.53          31.12          71.12          52.06         -18.14          11.87         -162.2         -2.568          4.412          43.74          39.94
    0.2858              -47.53          31.12          71.11          52.07         -18.14          11.86         -162.2         -2.563          4.394          43.73          39.95
    0.3335              -47.54          31.12          71.11          52.07         -18.14          11.86         -162.2         -2.557          4.374          43.73          39.96
    0.3811              -47.54          31.12           71.1          52.07         -18.14          11.86         -162.1         -2.551          4.352          43.72          39.97
    0.4287              -47.54          31.12          71.09          52.07         -18.14          11.85         -162.1         -2.545          4.329          43.72          39.99
    0.4764              -47.54          31.12          71.08          52.07         -18.14          11.85         -162.0         -2.538          4.305          43.71           40.0
     0.524              -47.54          31.12          71.07          52.08         -18.14          11.84         -161.9         -2.531          4.278           43.7          40.02
    0.5717              -47.54          31.12          71.06          52.08         -18.14          11.84         -161.9         -2.523           4.25          43.69          40.03
    0.6193              -47.55          31.12          71.05          52.08         -18.14          11.83         -161.8         -2.514          4.219          43.69          40.05
    0.6669              -47.55          31.12          71.04          52.09         -18.14          11.83         -161.7         -2.505          4.186          43.68          40.07
    0.7146              -47.55          31.13          71.02          52.09         -18.14          11.82         -161.6         -2.494          4.149          43.67          40.09
    0.7622              -47.55          31.13          71.01          52.09         -18.14          11.81         -161.5         -2.483           4.11          43.66          40.11
    0.8098              -47.56          31.13          70.99           52.1         -18.14          11.81         -161.4         -2.471          4.067          43.65          40.13
    0.8575              -47.56          31.13          70.98           52.1         -18.13           11.8         -161.3         -2.458           4.02          43.63          40.16
    0.9051              -47.56          31.13          70.96          52.11         -18.13          11.79         -161.2         -2.444          3.969          43.62          40.19
    0.9528              -47.57          31.13          70.94          52.11         -18.13          11.78         -161.1         -2.428          3.913          43.61          40.22
       1.0              -47.57          31.14          70.91          52.12         -18.13          11.77         -160.9         -2.411          3.851          43.59          40.26
     1.048              -47.58          31.14          70.89          52.13         -18.13          11.75         -160.8         -2.391          3.782          43.57          40.29
     1.096              -47.58          31.14          70.86          52.13         -18.13          11.74         -160.6          -2.37          3.707          43.55          40.34
     1.143              -47.59          31.15          70.83          52.14         -18.13          11.73         -160.4         -2.347          3.622          43.53          40.38
     1.191               -47.6          31.15          70.79          52.15         -18.12          11.71         -160.2          -2.32          3.528           43.5          40.44
     1.239               -47.6          31.15          70.76          52.16         -18.12          11.69         -159.9         -2.291          3.423          43.48           40.5
     1.286              -47.61          31.16          70.71          52.17         -18.12          11.67         -159.6         -2.257          3.304          43.45          40.56
     1.334              -47.62          31.16          70.66          52.19         -18.12          11.64         -159.3          -2.22          3.171          43.41          40.64
     1.381              -47.63          31.17          70.61           52.2         -18.11          11.62         -159.0         -2.177          3.018          43.37          40.72
     1.429              -47.64          31.18          70.54          52.22         -18.11          11.59         -158.5         -2.128          2.845          43.32          40.82
     1.477              -47.66          31.18          70.47          52.24          -18.1          11.55         -158.1         -2.073          2.646          43.27          40.93
     1.524              -47.67          31.19          70.39          52.26          -18.1          11.51         -157.5         -2.008          2.416          43.21          41.06
     1.572              -47.69           31.2          70.29          52.29         -18.09          11.46         -156.9         -1.933          2.149          43.14          41.21
      1.62              -47.72          31.21          70.17          52.32         -18.09           11.4         -156.2         -1.845          1.836          43.06          41.38
     1.667              -47.74          31.23          70.04          52.35         -18.08          11.34         -155.3         -1.742          1.468          42.96          41.59
     1.715              -47.77          31.24          69.88           52.4         -18.07          11.26         -154.3         -1.619           1.03          42.85          41.84
     1.763              -47.81          31.26          69.68          52.45         -18.06          11.16         -153.0         -1.472          0.505          42.71          42.13
      1.81              -47.86          31.29          69.45          52.51         -18.04          11.05         -151.5         -1.294          -0.13          42.54          42.49
     1.858              -47.91          31.32          69.16          52.59         -18.02          10.91         -149.7         -1.076        -0.9058          42.34          42.92
     1.906              -47.98          31.35          68.81          52.68          -18.0          10.74         -147.4        -0.8075         -1.863          42.08          43.46
     1.953              -48.06           31.4          68.37           52.8         -17.97          10.52         -144.6        -0.4725         -3.057          41.77          44.13
     2.001              -48.17          31.46          67.82          52.95         -17.94          10.25         -141.0       -0.05052         -4.561          41.37          44.97
     2.048              -48.31          31.53          67.12          53.13          -17.9          9.904         -136.5         0.4859         -6.473          40.87          46.04
     2.096              -48.48          31.62          66.22          53.37         -17.84          9.463         -130.7          1.172          -8.92          40.22          47.41
     2.144               -48.7          31.74          65.06          53.68         -17.77          8.897         -123.3          2.054         -12.06           39.4          49.17
     2.191              -48.99          31.89          63.58          54.08         -17.68          8.173         -113.8          3.179         -16.07          38.34          51.42
     2.239              -49.35          32.09          61.73          54.57         -17.57          7.263         -101.9          4.594         -21.12          37.01          54.24
     2.287              -49.78          32.32          59.47          55.18         -17.43          6.154         -87.37          6.319         -27.26          35.39          57.69
     2.334              -50.29          32.59          56.85          55.88         -17.26          4.869         -70.52          8.318         -34.39          33.51          61.68
     2.382              -50.84          32.88          54.01          56.64         -17.09          3.478         -52.29          10.48          -42.1          31.48           66.0
      2.43              -51.39          33.18          51.17           57.4         -16.91          2.086         -34.05          12.65         -49.82          29.45          70.32
     2.477              -51.89          33.45          48.55           58.1         -16.75          0.801          -17.2          14.65         -56.94          27.57          74.31
     2.525              -52.33          33.68          46.29           58.7         -16.61        -0.3077         -2.674          16.37         -63.09          25.95          77.76
     2.572              -52.69          33.87          44.43           59.2          -16.5         -1.218           9.25          17.79         -68.13          24.62          80.58
      2.62              -52.97          34.03          42.95          59.59         -16.41         -1.941          18.73          18.91         -72.14          23.57          82.83
     2.668              -53.19          34.15           41.8           59.9         -16.34         -2.508          26.16          19.79         -75.28          22.74          84.59
     2.715              -53.37          34.24           40.9          60.14         -16.28         -2.949          31.94          20.48         -77.73          22.09          85.96
     2.763               -53.5          34.31           40.2          60.33         -16.24         -3.294          36.46          21.01         -79.64          21.59          87.03
     2.811              -53.61          34.37          39.64          60.48          -16.2         -3.565          40.02          21.44         -81.15          21.19          87.88
     2.858               -53.7          34.41           39.2          60.59         -16.18         -3.781          42.84          21.77         -82.34          20.88          88.54
     2.906              -53.76          34.45          38.85          60.69         -16.16         -3.953           45.1          22.04          -83.3          20.63          89.08
     2.954              -53.82          34.48          38.57          60.76         -16.14         -4.093          46.94          22.26         -84.07          20.42          89.52
     3.001              -53.86           34.5          38.33          60.83         -16.12         -4.208          48.44          22.44         -84.71          20.25          89.87
     3.049               -53.9          34.52          38.14          60.88         -16.11         -4.302          49.68          22.58         -85.23          20.12          90.17
